<?xml version="1.0" encoding="utf-8"?>
<!-- Generator: Adobe Illustrator 23.0.5, SVG Export Plug-In . SVG Version: 6.00 Build 0)  -->
<svg version="1.1" id="Capa_1" xmlns="http://www.w3.org/2000/svg" xmlns:xlink="http://www.w3.org/1999/xlink" x="0px" y="0px"
	 viewBox="0 0 255.94 36" style="enable-background:new 0 0 255.94 36;" xml:space="preserve">
<style type="text/css">
	.st0{fill:#1c7abd;}
	.st1{fill:#1c7abd;}
</style>
<g>
	<g>
		<g>
			<path class="st0" d="M164.16,17.49h-3.14v1.88h3.05v1.11h-3.05v2.62h3.14v1.11h-4.32v-7.83h4.32V17.49z"/>
			<path class="st0" d="M172.19,24.21v-8.37l5.71,5.98v-5.44h1.18v8.31l-5.71-5.96v5.49H172.19z"/>
			<path class="st0" d="M198.3,16.38v6.72h2.3v1.11h-3.49v-7.83H198.3z"/>
			<path class="st0" d="M210.7,14.27l-1.95,1.4l-0.56-0.47l1.55-1.63L210.7,14.27z M209.38,16.38v7.83h-1.18v-7.83H209.38z"/>
			<path class="st0" d="M217.74,24.21v-8.37l5.71,5.98v-5.44h1.18v8.31l-5.71-5.96v5.49H217.74z"/>
			<path class="st0" d="M236.24,17.49h-3.14v1.88h3.05v1.11h-3.05v2.62h3.14v1.11h-4.32v-7.83h4.32V17.49z"/>
			<path class="st0" d="M249.94,22.31h-3.35l-0.87,1.9h-1.27l3.88-8.33l3.74,8.33h-1.29L249.94,22.31z M249.46,21.2l-1.16-2.66
				l-1.22,2.66H249.46z"/>
		</g>
	</g>
	<path class="st0" d="M19.28,22.67H17.5H8.23H4.66h-2.6v0.22c0,0.02,0,0.04,0,0.06l0,0.05c0.02,3.16,0.98,5.69,2.86,7.51
		c1.93,1.88,4.6,2.83,7.96,2.83c3.36,0,6.04-0.95,7.97-2.84c1.87-1.83,2.84-4.33,2.87-7.45l0-0.06c0-0.03,0-0.06,0-0.1v-0.22H19.28z
		"/>
	<rect x="2.05" y="16.63" class="st0" width="21.67" height="3.72"/>
	<rect x="2.05" y="11.35" class="st0" width="21.67" height="3.72"/>
	<g>
		<rect x="37.44" y="11.35" class="st1" width="5.13" height="9.39"/>
		<rect x="50.27" y="11.35" class="st1" width="5.17" height="9.39"/>
		<path class="st1" d="M50.26,23l-0.01,0.28c-0.04,1.61-0.39,2.86-1.05,3.7c-0.66,0.85-1.57,1.26-2.79,1.26
			c-1.23,0-2.14-0.41-2.79-1.26c-0.62-0.81-0.97-1.97-1.04-3.45l-0.01-0.37c0-0.05,0-0.11,0-0.16h-5.13v0.21c0,0.02,0,0.04,0,0.05
			l0,0.04c0.02,2.96,0.82,5.33,2.37,7.05c1.6,1.76,3.82,2.65,6.61,2.65c2.79,0,5.01-0.9,6.62-2.66c1.56-1.71,2.36-4.06,2.38-6.99
			l0-0.05c0-0.03,0-0.06,0-0.09V23H50.26z"/>
	</g>
	<g>
		<path class="st1" d="M63.19,20.81c0.17-1.37,0.67-2.51,1.51-3.45c1.04-1.16,2.33-1.73,3.96-1.73c0.84,0,1.6,0.14,2.25,0.42
			c0.64,0.27,1.21,0.7,1.7,1.26l0.66,0.75l3.39-3.92l-0.62-0.57c-1-0.92-2.12-1.61-3.34-2.05c-1.21-0.44-2.56-0.66-4.03-0.66
			c-0.81,0-1.57,0.07-2.26,0.2c-0.69,0.13-1.38,0.33-2.05,0.59c-1.32,0.54-2.48,1.31-3.46,2.29c-1.04,1.06-1.84,2.28-2.36,3.63
			c-0.39,1.01-0.64,2.09-0.73,3.23H63.19z"/>
		<path class="st1" d="M72.71,26.39c-0.47,0.61-1.03,1.05-1.7,1.35c-0.68,0.31-1.47,0.47-2.35,0.47c-1.65,0-2.95-0.56-3.98-1.7
			c-0.78-0.87-1.25-1.91-1.45-3.18l-0.02-0.14c-0.01-0.04-0.01-0.08-0.01-0.12H57.8l0.04,0.34c0.12,1.01,0.36,1.99,0.72,2.9
			c0.53,1.36,1.32,2.58,2.33,3.62c0.98,1.02,2.14,1.79,3.47,2.31c1.31,0.51,2.76,0.77,4.29,0.77c1.49,0,2.86-0.24,4.09-0.72
			c1.23-0.48,2.39-1.21,3.45-2.18l0.62-0.57l-3.47-3.98L72.71,26.39z"/>
	</g>
	<g>
		<path class="st1" d="M82.96,20.81c0.18-1.35,0.7-2.46,1.59-3.37c1.11-1.14,2.49-1.7,4.22-1.7c1.73,0,3.12,0.56,4.22,1.72
			c0.88,0.92,1.4,2.03,1.58,3.35h5.06l0-9.46h-4.91v1.89c-0.61-0.51-1.26-0.94-1.97-1.28c-1.36-0.66-2.86-0.99-4.45-0.99
			c-3.19,0-5.81,1.01-7.77,3.02c-1.74,1.77-2.71,4.06-2.91,6.82H82.96z"/>
		<path class="st1" d="M94.56,23.06l-0.02,0.1c-0.2,1.28-0.71,2.33-1.56,3.21c-1.11,1.14-2.49,1.7-4.22,1.7
			c-1.74,0-3.12-0.56-4.22-1.71c-0.82-0.85-1.32-1.86-1.54-3.07l-0.02-0.13c-0.01-0.03-0.01-0.07-0.01-0.1h-5.35l0.04,0.35
			c0.12,0.91,0.34,1.8,0.66,2.63c0.5,1.3,1.25,2.46,2.22,3.47c1.03,1.07,2.24,1.89,3.58,2.44c1.33,0.55,2.74,0.82,4.17,0.82
			c1.65,0,3.14-0.33,4.43-0.97c0.62-0.31,1.2-0.69,1.74-1.13v1.85h5.17l0-9.46H94.56z"/>
	</g>
	<g>
		<path class="st1" d="M107.61,20.81c0.18-1.35,0.7-2.46,1.62-3.39c1.13-1.15,2.55-1.71,4.32-1.71c1.8,0,3.22,0.56,4.35,1.7
			c0.91,0.93,1.43,2.05,1.61,3.4h5.07l0-18.12h-5.18v10.23c-0.55-0.43-1.16-0.79-1.8-1.07c-1.3-0.58-2.81-0.87-4.48-0.87
			c-0.76,0-1.51,0.07-2.22,0.22c-0.7,0.14-1.41,0.36-2.09,0.64c-1.38,0.57-2.6,1.39-3.64,2.43c-0.51,0.51-0.95,1.05-1.31,1.6
			c-0.36,0.55-0.67,1.16-0.93,1.83c-0.26,0.67-0.45,1.35-0.57,2.04c-0.06,0.35-0.1,0.71-0.13,1.08H107.61z"/>
		<path class="st1" d="M119.48,23.06l-0.02,0.09c-0.21,1.24-0.73,2.27-1.57,3.14c-1.12,1.15-2.55,1.71-4.35,1.71
			c-1.79,0-3.2-0.56-4.33-1.71c-0.81-0.83-1.32-1.81-1.55-2.99l-0.02-0.15c-0.01-0.03-0.01-0.06-0.01-0.09h-5.41l0.04,0.33
			c0.28,2.53,1.28,4.67,2.97,6.35c2.02,2.01,4.68,3.03,7.89,3.03c0.85,0,1.65-0.07,2.38-0.21c0.74-0.14,1.45-0.36,2.12-0.65
			c0.67-0.29,1.32-0.66,1.93-1.1c0.05-0.04,0.11-0.08,0.16-0.12v1.83h4.88l0-9.46H119.48z"/>
	</g>
	<rect x="141.89" y="3.51" class="st0" width="1.07" height="28.28"/>
</g>
</svg>
